{
  "accessors": [
    {
      "bufferView": 2,
      "componentType": 5126,
      "count": 4017,
      "max": [
        0.9606366157531738,
        1.0148168802261353,
        0.9202821850776672
      ],
      "min": [
        -0.9754822850227356,
        -1.0337222814559937,
        -0.956402599811554
      ],
      "type": "VEC3"
    },
    {
      "bufferView": 2,
      "byteOffset": 48204,
      "componentType": 5126,
      "count": 4017,
      "max": [
        0.9999706745147705,
        0.9993564486503601,
        0.9998311996459961
      ],
      "min": [
        -0.9999133944511414,
        -0.9997467398643494,
        -0.9990416765213013
      ],
      "type": "VEC3"
    },
    {
      "bufferView": 1,
      "componentType": 5126,
      "count": 4017,
      "max": [
        1.0,
        0.472382128238678
      ],
      "min": [
        0.0,
        0.0
      ],
      "type": "VEC2"
    },
    {
      "bufferView": 0,
      "componentType": 5125,
      "count": 23040,
      "type": "SCALAR"
    },
    {
      "bufferView": 2,
      "byteOffset": 96408,
      "componentType": 5126,
      "count": 312,
      "max": [
        0.7253461480140686,
        0.7253462672233582,
        0.7253462076187134
      ],
      "min": [
        -0.7253461480140686,
        -0.7253462672233582,
        -0.7253462076187134
      ],
      "type": "VEC3"
    },
    {
      "bufferView": 2,
      "byteOffset": 100152,
      "componentType": 5126,
      "count": 312,
      "max": [
        0.9958980679512024,
        0.9958980679512024,
        0.9958980679512024
      ],
      "min": [
        -0.9958980679512024,
        -0.9958980679512024,
        -0.9958980679512024
      ],
      "type": "VEC3"
    },
    {
      "bufferView": 1,
      "byteOffset": 32136,
      "componentType": 5126,
      "count": 312,
      "max": [
        0.625,
        1.0
      ],
      "min": [
        0.375,
        0.0
      ],
      "type": "VEC2"
    },
    {
      "bufferView": 0,
      "byteOffset": 92160,
      "componentType": 5125,
      "count": 312,
      "type": "SCALAR"
    },
    {
      "bufferView": 3,
      "componentType": 5126,
      "count": 100,
      "max": [
        4.166666507720947
      ],
      "min": [
        0.0416666679084301
      ],
      "type": "SCALAR"
    },
    {
      "bufferView": 4,
      "componentType": 5126,
      "count": 100,
      "max": [
        0.7069955468177795,
        0.7069955468177795,
        0.19245007634162903,
        1.0
      ],
      "min": [
        -0.7061058282852173,
        -0.7061058282852173,
        -0.7069956064224243,
        0.01682833954691887
      ],
      "type": "VEC4"
    },
    {
      "bufferView": 3,
      "byteOffset": 400,
      "componentType": 5126,
      "count": 100,
      "max": [
        4.166666507720947
      ],
      "min": [
        0.0416666679084301
      ],
      "type": "SCALAR"
    },
    {
      "bufferView": 4,
      "byteOffset": 1600,
      "componentType": 5126,
      "count": 100,
      "max": [
        0.7069955468177795,
        0.7069955468177795,
        0.19245009124279022,
        1.0
      ],
      "min": [
        -0.7061058282852173,
        -0.7061058282852173,
        -0.7069956064224243,
        0.016828272491693497
      ],
      "type": "VEC4"
    }
  ],
  "animations": [
    {
      "channels": [
        {
          "sampler": 0,
          "target": {
            "node": 3,
            "path": "rotation"
          }
        },
        {
          "sampler": 1,
          "target": {
            "node": 5,
            "path": "rotation"
          }
        }
      ],
      "name": "Animation",
      "samplers": [
        {
          "input": 8,
          "interpolation": "LINEAR",
          "output": 9
        },
        {
          "input": 10,
          "interpolation": "LINEAR",
          "output": 11
        }
      ]
    }
  ],
  "asset": {
    "extras": {
      "author": "tamminen (https://sketchfab.com/tamminen)",
      "license": "CC-BY-4.0 (http://creativecommons.org/licenses/by/4.0/)",
      "source": "https://sketchfab.com/3d-models/color-orb-4d5882be5eaa4214aa394ae96563f14e",
      "title": "Color orb"
    },
    "generator": "Sketchfab-14.87.0",
    "version": "2.0"
  },
  "bufferViews": [
    {
      "buffer": 0,
      "byteLength": 93408,
      "name": "floatBufferViews",
      "target": 34963
    },
    {
      "buffer": 0,
      "byteLength": 34632,
      "byteOffset": 93408,
      "byteStride": 8,
      "name": "floatBufferViews",
      "target": 34962
    },
    {
      "buffer": 0,
      "byteLength": 103896,
      "byteOffset": 128040,
      "byteStride": 12,
      "name": "floatBufferViews",
      "target": 34962
    },
    {
      "buffer": 0,
      "byteLength": 800,
      "byteOffset": 231936,
      "name": "floatBufferViews"
    },
    {
      "buffer": 0,
      "byteLength": 3200,
      "byteOffset": 232736,
      "byteStride": 16,
      "name": "floatBufferViews"
    }
  ],
  "buffers": [
    {
      "byteLength": 235936,
      "uri": "orb.bin"
    }
  ],
  "extensionsUsed": [
    "KHR_materials_specular",
    "KHR_materials_clearcoat",
    "KHR_materials_transmission"
  ],
  "materials": [
    {
      "doubleSided": true,
      "extensions": {
        "KHR_materials_specular": {
          "specularColorFactor": [
            1.0,
            1.0,
            1.0
          ],
          "specularFactor": 1.0
        }
      },
      "name": "material_0",
      "pbrMetallicRoughness": {
        "baseColorFactor": [
          0.33981055942265725,
          0.22108485633113165,
          0.1020348428937386,
          1.0
        ],
        "metallicFactor": 0.0,
        "roughnessFactor": 0.0
      }
    },
    {
      "alphaMode": "BLEND",
      "doubleSided": true,
      "extensions": {
        "KHR_materials_clearcoat": {
          "clearcoatFactor": 1.0,
          "clearcoatRoughnessFactor": 0.04
        },
        "KHR_materials_specular": {
          "specularColorFactor": [
            1.0,
            1.0,
            1.0
          ],
          "specularFactor": 0.5531445429167022
        },
        "KHR_materials_transmission": {
          "transmissionFactor": 0.8735234240713876
        }
      },
      "name": "material",
      "pbrMetallicRoughness": {
        "baseColorFactor": [
          0.16944813546098425,
          0.16944813546098425,
          0.16944813546098425,
          0.25
        ],
        "metallicFactor": 0.15085760261364606,
        "roughnessFactor": 0.07161926588728651
      }
    }
  ],
  "meshes": [
    {
      "name": "Object_0",
      "primitives": [
        {
          "attributes": {
            "NORMAL": 1,
            "POSITION": 0,
            "TEXCOORD_0": 2
          },
          "indices": 3,
          "material": 1,
          "mode": 4
        }
      ]
    },
    {
      "name": "Object_1",
      "primitives": [
        {
          "attributes": {
            "NORMAL": 5,
            "POSITION": 4,
            "TEXCOORD_0": 6
          },
          "indices": 7,
          "material": 0,
          "mode": 4
        }
      ]
    }
  ],
  "nodes": [
    {
      "children": [
        1
      ],
      "matrix": [
        1.0,
        0.0,
        0.0,
        0.0,
        0.0,
        2.220446049250313e-16,
        -1.0,
        0.0,
        0.0,
        1.0,
        2.220446049250313e-16,
        0.0,
        0.0,
        0.0,
        0.0,
        1.0
      ],
      "name": "Sketchfab_model"
    },
    {
      "children": [
        2
      ],
      "name": "root"
    },
    {
      "children": [
        3,
        5
      ],
      "matrix": [
        1.0,
        0.0,
        0.0,
        0.0,
        0.0,
        2.220446049250313e-16,
        1.0,
        0.0,
        0.0,
        -1.0,
        2.220446049250313e-16,
        0.0,
        0.0,
        0.0,
        0.0,
        1.0
      ],
      "name": "GLTF_SceneRootNode"
    },
    {
      "children": [
        4
      ],
      "name": "Icosphere_0"
    },
    {
      "mesh": 0,
      "name": "Object_4"
    },
    {
      "children": [
        6
      ],
      "name": "Cube.008_1"
    },
    {
      "mesh": 1,
      "name": "Object_6"
    }
  ],
  "scene": 0,
  "scenes": [
    {
      "name": "Sketchfab_Scene",
      "nodes": [
        0
      ]
    }
  ]
}
